<svg version="1.1" id="Layer_1" xmlns="http://www.w3.org/2000/svg" xmlns:xlink="http://www.w3.org/1999/xlink" x="0px" y="0px"
	 width="100%" viewBox="0 0 990 744" enable-background="new 0 0 990 744" xml:space="preserve">
<path fill="#FFFFFF" opacity="1.000000" stroke="none" 
	d="
M678.000000,745.000000 
	C452.000061,745.000000 226.500137,745.000000 1.000151,745.000000 
	C1.000101,497.000153 1.000101,249.000290 1.000050,1.000318 
	C330.999756,1.000212 660.999512,1.000212 990.999451,1.000106 
	C990.999634,248.999695 990.999634,496.999390 990.999817,744.999512 
	C886.833313,745.000000 782.666687,745.000000 678.000000,745.000000 
M364.998383,354.375977 
	C365.040741,369.953033 371.946472,376.873688 387.447906,376.873718 
	C401.761627,376.873749 416.075409,376.899475 430.389038,376.865051 
	C440.961243,376.839630 448.695862,369.894012 448.901459,359.408691 
	C449.221130,343.104553 449.238007,326.784027 448.890198,310.480957 
	C448.664185,299.887085 441.029083,293.063568 430.430573,293.046967 
	C415.783997,293.023987 401.137360,293.040436 386.490753,293.041107 
	C372.317261,293.041748 365.023346,300.298065 365.002441,314.461395 
	C364.983307,327.443573 364.998352,340.425842 364.998383,354.375977 
M552.589172,118.792915 
	C545.900330,121.933899 542.283081,127.502914 542.128723,134.578018 
	C541.769287,151.053207 541.738281,167.547913 542.116150,184.022278 
	C542.352844,194.344147 550.005005,201.100067 560.348816,201.123550 
	C575.500366,201.157944 590.651978,201.135757 605.803589,201.131668 
	C618.170715,201.128326 625.826904,193.793808 625.947998,181.464432 
	C626.093445,166.647263 626.108093,151.826157 625.941589,137.009415 
	C625.807312,125.061508 617.938354,117.379494 606.121094,117.344170 
	C591.136169,117.299377 576.150574,117.280800 561.166199,117.382912 
	C558.540833,117.400795 555.919861,118.067963 552.589172,118.792915 
M437.808136,206.298569 
	C435.190643,205.922668 432.575256,205.239822 429.955261,205.221573 
	C414.969604,205.117203 399.982819,205.163208 384.996429,205.173309 
	C373.328857,205.181183 365.279175,212.583557 365.073669,224.175659 
	C364.802155,239.490295 364.792419,254.817169 365.071472,270.131470 
	C365.281738,281.671326 373.122986,288.974670 384.535217,288.983032 
	C399.688141,288.994141 414.841034,288.994598 429.993958,288.982941 
	C441.373901,288.974213 448.832458,281.898621 448.971313,270.470184 
	C449.161499,254.820190 449.163849,239.164078 448.948608,223.514679 
	C448.845306,216.007233 445.537079,210.080048 437.808136,206.298569 
M541.966614,312.666107 
	C541.968506,327.479767 541.854675,342.294647 542.009705,357.106689 
	C542.128357,368.438629 549.665100,375.693451 560.975098,375.711395 
	C576.111267,375.735413 591.247559,375.747406 606.383667,375.709869 
	C617.717712,375.681732 625.661255,368.281311 625.895996,356.804596 
	C626.208984,341.497986 626.350708,326.167938 625.848267,310.871552 
	C625.513611,300.683807 618.816895,291.261719 606.077698,291.772919 
	C591.453979,292.359711 576.788757,291.907898 562.141541,291.909363 
	C548.921814,291.910675 542.313599,298.401154 541.966614,312.666107 
M515.452026,201.132263 
	C528.876953,201.131744 536.450562,196.366928 536.928894,185.616684 
	C537.697632,168.340759 537.687866,150.990448 537.050842,133.706787 
	C536.674988,123.508263 529.341858,117.484238 519.103699,117.378471 
	C503.448120,117.216736 487.788818,117.234116 472.132782,117.371231 
	C461.781342,117.461899 454.242798,124.472168 454.045288,134.778976 
	C453.729401,151.261719 453.724945,167.761307 454.096924,184.242310 
	C454.325287,194.360962 461.869019,201.084320 471.991608,201.119339 
	C486.149567,201.168335 500.307831,201.132095 515.452026,201.132263 
M364.999634,438.458771 
	C365.001282,440.789825 364.859558,443.131348 365.028870,445.450165 
	C365.846466,456.647522 373.372253,465.378937 385.176727,465.088196 
	C399.986359,464.723419 414.811859,465.007782 429.630493,464.997894 
	C440.610962,464.990570 448.657776,457.879333 448.886841,447.037689 
	C449.231476,430.728607 449.223022,414.401215 448.871521,398.092224 
	C448.649658,387.797729 440.966736,380.931030 430.707062,380.916718 
	C414.889435,380.894653 399.064728,380.656555 383.259186,381.093964 
	C379.407379,381.200531 375.030273,382.788757 371.934235,385.092621 
	C366.906799,388.833771 365.076202,394.770416 365.027588,401.006683 
	C364.932861,413.160583 364.999725,425.315704 364.999634,438.458771 
M453.909607,337.500000 
	C453.915192,344.495850 453.783081,351.495117 453.957794,358.486725 
	C454.236481,369.638367 461.611877,376.839111 472.627747,376.864471 
	C487.952087,376.899750 503.276611,376.895477 518.601013,376.865570 
	C529.058472,376.845184 536.629028,370.903839 537.024231,360.557465 
	C537.678040,343.440308 537.645813,326.262634 537.010620,309.143555 
	C536.635254,299.027344 529.118225,293.066864 518.961792,293.048462 
	C503.803955,293.021027 488.646027,293.035461 473.488159,293.043060 
	C461.165649,293.049255 454.076324,300.059113 453.929413,312.514130 
	C453.835114,320.508392 453.910309,328.504639 453.909607,337.500000 
M527.527527,287.326782 
	C533.127930,284.417084 536.824951,279.682434 536.972534,273.566559 
	C537.393555,256.118958 537.630188,238.638000 536.990845,221.204941 
	C536.623962,211.199890 528.943298,205.200333 518.855164,205.179550 
	C503.378876,205.147675 487.902374,205.146835 472.426117,205.179626 
	C461.909088,205.201904 454.250793,212.171600 454.041992,222.729218 
	C453.722839,238.864410 453.740845,255.014297 454.026520,271.150665 
	C454.220062,282.083405 461.701111,288.958862 472.603729,288.978394 
	C488.080078,289.006134 503.556915,289.044617 519.032410,288.927612 
	C521.633484,288.907959 524.228760,288.126221 527.527527,287.326782 
M537.378784,406.513184 
	C537.373169,404.013611 537.463745,401.509521 537.345520,399.015289 
	C536.802917,387.571930 529.879822,380.924347 518.528931,380.914246 
	C503.198120,380.900635 487.867340,380.898804 472.536530,380.914978 
	C461.896820,380.926208 454.257965,387.767456 454.052307,398.295441 
	C453.736694,414.452942 453.753021,430.623901 454.006836,446.783203 
	C454.177399,457.641541 462.166107,464.984131 473.061981,464.996307 
	C487.559601,465.012543 502.078979,464.506500 516.548462,465.144836 
	C529.933472,465.735382 537.919189,455.571625 537.481384,443.998718 
	C537.021912,431.851440 537.378967,419.673309 537.378784,406.513184 
M377.747864,127.252380 
	C376.547089,128.634598 375.271332,129.959122 374.157196,131.407959 
	C363.710785,144.992752 362.973969,164.094620 372.301056,178.688110 
	C381.315643,192.792648 398.297516,199.985641 414.228088,196.447037 
	C430.923981,192.738434 443.576111,179.176605 445.907501,162.489838 
	C448.330872,145.144836 439.753143,127.943756 424.779572,120.121521 
	C408.818726,111.783524 392.202393,114.150200 377.747864,127.252380 
M537.146362,634.808716 
	C537.146362,612.570068 537.146362,590.331421 537.146362,568.193115 
	C532.166138,568.193115 528.043823,568.193115 523.714539,568.193115 
	C523.615417,569.351196 523.455750,570.321106 523.460815,571.290100 
	C523.573486,592.772949 523.341431,614.266479 523.978882,635.734070 
	C524.316895,647.119263 531.536682,653.074524 542.925720,653.196533 
	C555.452332,653.330750 562.609314,646.797729 563.033630,634.176636 
	C563.391724,623.525879 563.177612,612.855469 563.192688,602.193726 
	C563.208740,590.889221 563.196350,579.584717 563.196350,568.168579 
	C558.861633,568.168579 554.907227,568.168579 550.448425,568.168579 
	C550.448425,570.309692 550.448486,572.271423 550.448425,574.233154 
	C550.447388,593.559509 550.471741,612.885925 550.423584,632.212158 
	C550.414124,636.015503 549.909119,639.798889 545.209656,640.655945 
	C541.205200,641.386230 538.403503,639.779297 537.146362,634.808716 
M504.972168,569.366028 
	C504.221130,568.909790 503.477356,568.072388 502.717926,568.057922 
	C496.905365,567.947510 491.089752,567.997314 485.105286,567.997314 
	C480.624359,596.006348 476.188934,623.730835 471.704926,651.759155 
	C476.006195,651.759155 479.922119,651.759155 484.040192,651.759155 
	C484.823853,646.914673 485.588135,642.190125 486.386322,637.255859 
	C491.658630,637.255859 496.764862,637.255859 502.224152,637.255859 
	C503.018280,642.084106 503.815918,646.933655 504.610626,651.765503 
	C509.270325,651.765503 513.540405,651.765503 518.149414,651.765503 
	C513.760620,624.396118 509.418304,597.316589 504.972168,569.366028 
M424.302307,620.548889 
	C438.155243,620.466003 444.693909,615.018250 445.414917,602.236450 
	C445.778442,595.791992 445.619507,589.249512 444.939301,582.831665 
	C444.056000,574.497253 438.609833,568.906677 430.378723,568.269775 
	C422.492340,567.659485 414.521698,568.138000 406.374817,568.138000 
	C406.374817,596.164062 406.374817,623.851501 406.374817,651.700989 
	C410.807220,651.700989 415.006226,651.700989 419.549469,651.700989 
	C419.549469,642.432129 419.654999,633.471008 419.489563,624.514893 
	C419.435089,621.563721 420.152008,620.032349 424.302307,620.548889 
M585.474121,569.029480 
	C581.206482,568.544189 576.938843,568.058899 572.384277,567.541016 
	C572.384277,596.164124 572.384277,623.883179 572.384277,651.684998 
	C576.849915,651.684998 581.055298,651.684998 585.559021,651.684998 
	C585.559021,624.213623 585.559021,597.082092 585.474121,569.029480 
M465.573456,633.499146 
	C465.573456,611.741028 465.573456,589.982910 465.573456,568.383240 
	C460.718018,568.383240 456.496338,568.383240 452.361908,568.383240 
	C452.361908,596.379883 452.361908,623.966614 452.361908,651.715759 
	C456.804535,651.715759 461.010651,651.715759 465.573303,651.715759 
	C465.573303,645.774597 465.573303,640.136414 465.573456,633.499146 
M307.860748,492.892914 
	C307.860748,491.636932 307.860748,490.380951 307.860748,489.115906 
	C305.559875,489.115906 303.829681,489.115906 301.953613,489.115906 
	C301.953613,501.718109 301.953613,514.011658 301.953613,526.305237 
	C300.948761,525.134521 300.417511,523.832031 299.984955,522.497681 
	C297.020172,513.351562 294.085358,504.195801 291.122284,495.049164 
	C288.804596,487.894806 288.792664,487.898682 281.183472,489.392273 
	C281.183472,507.828033 281.183472,526.255920 281.183472,544.732544 
	C283.108185,544.732544 284.825958,544.732544 286.854614,544.732544 
	C286.854614,531.054077 286.854614,517.656250 286.854614,504.258423 
	C287.180206,504.184875 287.505768,504.111328 287.831360,504.037750 
	C292.167877,517.640991 296.504395,531.244202 300.831482,544.817810 
	C303.220154,544.817810 305.327087,544.817810 307.860779,544.817810 
	C307.860779,527.684448 307.860779,510.748199 307.860748,492.892914 
M659.010986,513.272583 
	C659.293640,507.841309 660.147095,502.361328 659.689270,496.993195 
	C659.278076,492.173157 655.507324,489.418335 650.718933,489.099915 
	C645.596130,488.759308 640.433105,489.023163 635.260620,489.023163 
	C635.260620,507.720459 635.260620,526.304993 635.260620,545.074890 
	C637.460815,544.973999 639.370117,544.886475 641.678345,544.780701 
	C641.678345,536.773010 641.678345,529.162415 641.678345,521.621277 
	C651.381958,520.452942 653.866211,522.585999 653.976990,531.847839 
	C654.028076,536.117065 653.985718,540.387390 653.985718,544.649475 
	C656.954956,544.649475 658.991211,544.649475 661.524170,544.649475 
	C657.674561,535.739075 664.526917,524.872620 655.558411,518.289429 
	C656.583679,516.864441 657.629578,515.410828 659.010986,513.272583 
M500.568420,503.754761 
	C500.421570,501.937836 500.416443,500.096039 500.102539,498.308441 
	C498.958344,491.793060 494.236389,488.059662 487.384857,488.126526 
	C480.623444,488.192505 475.304047,492.117859 475.054962,498.637634 
	C474.586487,510.900269 474.669250,523.202026 475.056793,535.470581 
	C475.215393,540.490662 478.448120,543.916626 483.572906,545.251953 
	C493.219604,547.765503 500.237915,542.514893 500.515533,532.122742 
	C500.759644,522.986755 500.567749,513.839233 500.568420,503.754761 
M682.134277,488.797333 
	C680.187744,488.797333 678.241150,488.797333 676.165527,488.797333 
	C672.559204,507.704620 669.032715,526.193481 665.484802,544.794617 
	C667.884033,544.794617 669.655884,544.794617 671.532166,544.794617 
	C672.287903,541.088135 673.004639,537.572937 673.700562,534.159607 
	C678.557739,534.159607 682.986267,534.159607 687.484863,534.159607 
	C688.291260,537.920654 689.043457,541.429138 689.749390,544.721985 
	C692.134644,544.721985 694.056763,544.721985 696.201233,544.721985 
	C692.745056,526.614990 689.389709,508.834595 685.854614,491.089996 
	C685.671265,490.169586 683.953918,489.554779 682.134277,488.797333 
M580.551453,545.005554 
	C583.045471,545.005554 585.540100,545.040771 588.033386,544.998779 
	C595.046997,544.880493 599.651550,541.153076 599.886230,534.222168 
	C600.274292,522.766968 600.237671,511.281769 599.895630,499.823669 
	C599.711060,493.641296 595.746704,489.532410 590.074890,489.114685 
	C584.848389,488.729767 579.571167,489.032806 574.314697,489.032806 
	C574.314697,507.834351 574.314697,526.343445 574.314697,545.005554 
	C576.283447,545.005554 577.932617,545.005554 580.551453,545.005554 
M329.581421,488.753662 
	C319.866058,486.867401 314.060944,491.328918 313.440063,501.065460 
	C313.010101,507.808319 315.975525,512.866638 320.956451,517.064392 
	C323.749207,519.417969 327.123566,521.503845 328.919250,524.499512 
	C330.720856,527.505188 331.692230,531.552917 331.428253,535.022156 
	C331.296661,536.750732 327.665405,539.293396 325.476166,539.446167 
	C323.696716,539.570251 321.166748,537.008179 319.970154,535.031677 
	C318.881348,533.233215 319.139709,530.619202 318.764282,528.095947 
	C316.907043,528.186890 315.165924,528.272156 313.277496,528.364624 
	C313.216553,529.758911 313.129395,530.738037 313.137939,531.716370 
	C313.216003,540.651978 317.723694,545.708191 325.727661,545.861206 
	C333.418365,546.008301 338.227631,541.192688 338.711151,532.549805 
	C339.003937,527.315918 337.181152,522.744324 333.331573,519.127380 
	C330.063812,516.057068 326.596954,513.197021 323.362335,510.093689 
	C320.078735,506.943298 318.863037,502.790497 320.486298,498.707855 
	C321.260040,496.761780 324.246552,494.518799 326.197540,494.549103 
	C328.141846,494.579285 330.358337,497.037262 331.846710,498.913666 
	C332.725586,500.021698 332.422913,502.066895 332.668091,503.807739 
	C334.640991,503.807739 336.392731,503.807739 338.120605,503.807739 
	C338.976929,495.668457 336.916870,491.784851 329.581421,488.753662 
M414.825592,491.595215 
	C414.825409,494.595093 414.811493,497.595062 414.827454,500.594879 
	C414.887726,511.924896 414.678375,523.265869 415.125702,534.580811 
	C415.406891,541.693604 420.316986,545.788147 427.250244,545.842712 
	C434.150848,545.897034 439.514343,542.120056 439.710510,535.508606 
	C440.168427,520.076660 439.856689,504.621857 439.856689,489.001984 
	C437.950348,489.001984 436.196289,489.001984 433.994415,489.001984 
	C433.994415,502.933563 434.004211,516.724670 433.990082,530.515747 
	C433.983521,536.925903 431.917297,539.875366 427.545197,539.816711 
	C423.324951,539.760071 421.210785,536.637329 421.182037,530.291199 
	C421.151062,523.458313 421.174957,516.625061 421.174957,509.791962 
	C421.174957,502.859222 421.174988,495.926453 421.174988,487.619598 
	C418.386414,488.936859 416.608917,489.776489 414.825592,491.595215 
M551.575500,496.506622 
	C552.720703,495.960938 553.847229,494.996552 555.014404,494.944641 
	C559.280151,494.755066 563.559387,494.869629 567.982117,494.869629 
	C567.982117,492.641571 567.982117,490.885132 567.982117,489.129150 
	C560.221680,489.129150 552.686279,489.129150 545.231934,489.129150 
	C545.231934,507.888031 545.231934,526.314087 545.231934,544.873840 
	C552.925354,544.873840 560.361816,544.873840 567.957520,544.873840 
	C567.957520,542.955200 567.957520,541.188965 567.957520,539.040649 
	C562.454956,539.040649 557.187866,539.040649 551.855774,539.040649 
	C551.855774,532.427063 551.855774,526.201477 551.855774,519.509399 
	C556.381531,519.509399 560.627319,519.509399 565.024658,519.509399 
	C565.024658,517.425903 565.024658,515.812195 565.024658,513.787598 
	C560.635986,513.787598 556.375061,513.787598 551.559143,513.787598 
	C551.559143,508.096588 551.559143,502.801147 551.575500,496.506622 
M605.975037,525.499634 
	C605.975037,531.932068 605.975037,538.364563 605.975037,544.843689 
	C613.971680,544.843689 621.403625,544.843689 628.939575,544.843689 
	C628.939575,542.893921 628.939575,541.127808 628.939575,538.990356 
	C623.409363,538.990356 618.137207,538.990356 612.880188,538.990356 
	C612.880188,532.381348 612.880188,526.151062 612.880188,519.459229 
	C617.432800,519.459229 621.677185,519.459229 626.015991,519.459229 
	C626.015991,517.378784 626.015991,515.769470 626.015991,513.739380 
	C621.584900,513.739380 617.325500,513.739380 612.859314,513.739380 
	C612.859314,507.271179 612.859314,501.226166 612.859314,494.760986 
	C618.391968,494.760986 623.636353,494.760986 628.953247,494.760986 
	C628.953247,492.582031 628.953247,490.830841 628.953247,488.949524 
	C621.247803,488.949524 613.791565,488.949524 605.975037,488.949524 
	C605.975037,500.898834 605.975037,512.699341 605.975037,525.499634 
M531.397217,488.797699 
	C526.982361,488.797699 522.567444,488.797699 518.181396,488.797699 
	C518.181396,507.842255 518.181396,526.271912 518.181396,544.820557 
	C520.304504,544.820557 522.219666,544.820557 524.559082,544.820557 
	C524.559082,536.880981 524.559082,529.137146 524.559082,520.945557 
	C529.054199,520.945557 533.141052,520.945557 537.272095,520.945557 
	C537.272095,518.745178 537.272095,517.006348 537.272095,514.852478 
	C532.898560,514.852478 528.799133,514.852478 524.847290,514.852478 
	C524.847290,508.016602 524.847290,501.602783 524.847290,494.681274 
	C530.190735,494.681274 535.251160,494.681274 540.390259,494.681274 
	C540.390259,492.527893 540.390259,490.892975 540.390259,488.797760 
	C537.602478,488.797760 534.973938,488.797760 531.397217,488.797699 
M352.109467,514.500305 
	C352.109467,524.612549 352.109467,534.724792 352.109467,544.892212 
	C354.488403,544.892212 356.296783,544.892212 358.686768,544.892212 
	C358.686768,528.212463 358.686768,511.669739 358.686768,494.816620 
	C362.378784,494.816620 365.492035,494.816620 368.701660,494.816620 
	C368.701660,492.630066 368.701660,490.783813 368.701660,489.014008 
	C359.584351,489.014008 350.808075,489.014008 342.024292,489.014008 
	C342.024292,491.030945 342.024292,492.807312 342.024292,495.068451 
	C345.486298,495.068451 348.715881,495.068451 352.109467,495.068451 
	C352.109467,501.536621 352.109467,507.518524 352.109467,514.500305 
M450.557617,494.890625 
	C453.995087,494.208160 454.173981,496.175415 454.156677,498.873260 
	C454.058868,514.122375 454.109436,529.372437 454.109436,544.790649 
	C456.429077,544.790649 458.321930,544.790649 460.583191,544.790649 
	C460.583191,528.157471 460.583191,511.769165 460.583191,494.917053 
	C464.184387,494.917053 467.426849,494.917053 470.850342,494.917053 
	C470.850342,492.678680 470.850342,490.905670 470.850342,489.011169 
	C461.831451,489.011169 452.937134,489.011169 444.017944,489.011169 
	C444.017944,491.020233 444.017944,492.791779 444.017944,494.890533 
	C446.049072,494.890533 447.841644,494.890533 450.557617,494.890625 
M394.109467,522.500000 
	C394.109467,529.947449 394.109467,537.394897 394.109467,544.890991 
	C396.490967,544.890991 398.298676,544.890991 400.688538,544.890991 
	C400.688538,528.210205 400.688538,511.667725 400.688538,494.815002 
	C404.378815,494.815002 407.497772,494.815002 410.700317,494.815002 
	C410.700317,492.633881 410.700317,490.786163 410.700317,489.014832 
	C401.581879,489.014832 392.805725,489.014832 384.025055,489.014832 
	C384.025055,491.032806 384.025055,492.809418 384.025055,495.070618 
	C387.490295,495.070618 390.715790,495.070618 394.109467,495.070618 
	C394.109467,504.204437 394.109467,512.852234 394.109467,522.500000 
M707.568420,508.500458 
	C707.568420,502.070679 707.568420,495.640869 707.568420,489.005585 
	C705.175903,489.005585 703.242798,489.005585 701.220581,489.005585 
	C701.220581,507.690491 701.220581,526.210938 701.220581,544.789551 
	C708.705872,544.789551 715.937256,544.789551 723.217651,544.789551 
	C723.217651,542.822632 723.217651,541.103271 723.217651,538.902893 
	C717.811890,538.902893 712.745544,538.902893 707.568420,538.902893 
	C707.568420,528.778625 707.568420,519.139465 707.568420,508.500458 
M267.965424,491.014191 
	C267.965424,508.912659 267.965424,526.811157 267.965424,544.843994 
	C270.296844,544.843994 272.212921,544.843994 274.306274,544.843994 
	C274.306274,526.153564 274.306274,507.654907 274.306274,488.178650 
	C271.874207,488.930206 269.924774,489.532623 267.965424,491.014191 
M379.577148,496.619568 
	C379.577148,494.165009 379.577148,491.710449 379.577148,489.140594 
	C377.138824,489.140594 375.113220,489.140594 373.217041,489.140594 
	C373.217041,507.943115 373.217041,526.387939 373.217041,544.768921 
	C375.388489,544.768921 377.303406,544.768921 379.577118,544.768921 
	C379.577118,528.866272 379.577118,513.226990 379.577148,496.619568 
M588.206848,555.699036 
	C589.775452,553.989624 591.344055,552.280151 593.348633,550.095581 
	C579.349976,549.740723 576.102722,551.982666 572.606384,563.402771 
	C580.149597,566.479736 583.681702,560.779175 588.206848,555.699036 
z"/>
<path fill="#72C838" opacity="1.000000" stroke="none" 
	d="
M364.998352,353.892029 
	C364.998352,340.425842 364.983307,327.443573 365.002441,314.461395 
	C365.023346,300.298065 372.317261,293.041748 386.490753,293.041107 
	C401.137360,293.040436 415.783997,293.023987 430.430573,293.046967 
	C441.029083,293.063568 448.664185,299.887085 448.890198,310.480957 
	C449.238007,326.784027 449.221130,343.104553 448.901459,359.408691 
	C448.695862,369.894012 440.961243,376.839630 430.389038,376.865051 
	C416.075409,376.899475 401.761627,376.873749 387.447906,376.873718 
	C371.946472,376.873688 365.040741,369.953033 364.998352,353.892029 
z"/>
<path fill="#72C838" opacity="1.000000" stroke="none" 
	d="
M552.942993,118.614090 
	C555.919861,118.067963 558.540833,117.400795 561.166199,117.382912 
	C576.150574,117.280800 591.136169,117.299377 606.121094,117.344170 
	C617.938354,117.379494 625.807312,125.061508 625.941589,137.009415 
	C626.108093,151.826157 626.093445,166.647263 625.947998,181.464432 
	C625.826904,193.793808 618.170715,201.128326 605.803589,201.131668 
	C590.651978,201.135757 575.500366,201.157944 560.348816,201.123550 
	C550.005005,201.100067 542.352844,194.344147 542.116150,184.022278 
	C541.738281,167.547913 541.769287,151.053207 542.128723,134.578018 
	C542.283081,127.502914 545.900330,121.933899 552.942993,118.614090 
z"/>
<path fill="#72C838" opacity="1.000000" stroke="none" 
	d="
M438.158905,206.479004 
	C445.537079,210.080048 448.845306,216.007233 448.948608,223.514679 
	C449.163849,239.164078 449.161499,254.820190 448.971313,270.470184 
	C448.832458,281.898621 441.373901,288.974213 429.993958,288.982941 
	C414.841034,288.994598 399.688141,288.994141 384.535217,288.983032 
	C373.122986,288.974670 365.281738,281.671326 365.071472,270.131470 
	C364.792419,254.817169 364.802155,239.490295 365.073669,224.175659 
	C365.279175,212.583557 373.328857,205.181183 384.996429,205.173309 
	C399.982819,205.163208 414.969604,205.117203 429.955261,205.221573 
	C432.575256,205.239822 435.190643,205.922668 438.158905,206.479004 
z"/>
<path fill="#72C838" opacity="1.000000" stroke="none" 
	d="
M541.966675,312.193359 
	C542.313599,298.401154 548.921814,291.910675 562.141541,291.909363 
	C576.788757,291.907898 591.453979,292.359711 606.077698,291.772919 
	C618.816895,291.261719 625.513611,300.683807 625.848267,310.871552 
	C626.350708,326.167938 626.208984,341.497986 625.895996,356.804596 
	C625.661255,368.281311 617.717712,375.681732 606.383667,375.709869 
	C591.247559,375.747406 576.111267,375.735413 560.975098,375.711395 
	C549.665100,375.693451 542.128357,368.438629 542.009705,357.106689 
	C541.854675,342.294647 541.968506,327.479767 541.966675,312.193359 
z"/>
<path fill="#72C838" opacity="1.000000" stroke="none" 
	d="
M514.958984,201.132294 
	C500.307831,201.132095 486.149567,201.168335 471.991608,201.119339 
	C461.869019,201.084320 454.325287,194.360962 454.096924,184.242310 
	C453.724945,167.761307 453.729401,151.261719 454.045288,134.778976 
	C454.242798,124.472168 461.781342,117.461899 472.132782,117.371231 
	C487.788818,117.234116 503.448120,117.216736 519.103699,117.378471 
	C529.341858,117.484238 536.674988,123.508263 537.050842,133.706787 
	C537.687866,150.990448 537.697632,168.340759 536.928894,185.616684 
	C536.450562,196.366928 528.876953,201.131744 514.958984,201.132294 
z"/>
<path fill="#71C837" opacity="1.000000" stroke="none" 
	d="
M364.999634,437.964539 
	C364.999725,425.315704 364.932861,413.160583 365.027588,401.006683 
	C365.076202,394.770416 366.906799,388.833771 371.934235,385.092621 
	C375.030273,382.788757 379.407379,381.200531 383.259186,381.093964 
	C399.064728,380.656555 414.889435,380.894653 430.707062,380.916718 
	C440.966736,380.931030 448.649658,387.797729 448.871521,398.092224 
	C449.223022,414.401215 449.231476,430.728607 448.886841,447.037689 
	C448.657776,457.879333 440.610962,464.990570 429.630493,464.997894 
	C414.811859,465.007782 399.986359,464.723419 385.176727,465.088196 
	C373.372253,465.378937 365.846466,456.647522 365.028870,445.450165 
	C364.859558,443.131348 365.001282,440.789825 364.999634,437.964539 
z"/>
<path fill="#72C838" opacity="1.000000" stroke="none" 
	d="
M453.909576,337.000000 
	C453.910309,328.504639 453.835114,320.508392 453.929413,312.514130 
	C454.076324,300.059113 461.165649,293.049255 473.488159,293.043060 
	C488.646027,293.035461 503.803955,293.021027 518.961792,293.048462 
	C529.118225,293.066864 536.635254,299.027344 537.010620,309.143555 
	C537.645813,326.262634 537.678040,343.440308 537.024231,360.557465 
	C536.629028,370.903839 529.058472,376.845184 518.601013,376.865570 
	C503.276611,376.895477 487.952087,376.899750 472.627747,376.864471 
	C461.611877,376.839111 454.236481,369.638367 453.957794,358.486725 
	C453.783081,351.495117 453.915192,344.495850 453.909576,337.000000 
z"/>
<path fill="#72C838" opacity="1.000000" stroke="none" 
	d="
M527.177124,287.511719 
	C524.228760,288.126221 521.633484,288.907959 519.032410,288.927612 
	C503.556915,289.044617 488.080078,289.006134 472.603729,288.978394 
	C461.701111,288.958862 454.220062,282.083405 454.026520,271.150665 
	C453.740845,255.014297 453.722839,238.864410 454.041992,222.729218 
	C454.250793,212.171600 461.909088,205.201904 472.426117,205.179626 
	C487.902374,205.146835 503.378876,205.147675 518.855164,205.179550 
	C528.943298,205.200333 536.623962,211.199890 536.990845,221.204941 
	C537.630188,238.638000 537.393555,256.118958 536.972534,273.566559 
	C536.824951,279.682434 533.127930,284.417084 527.177124,287.511719 
z"/>
<path fill="#71C837" opacity="1.000000" stroke="none" 
	d="
M537.379028,407.010925 
	C537.378967,419.673309 537.021912,431.851440 537.481384,443.998718 
	C537.919189,455.571625 529.933472,465.735382 516.548462,465.144836 
	C502.078979,464.506500 487.559601,465.012543 473.061981,464.996307 
	C462.166107,464.984131 454.177399,457.641541 454.006836,446.783203 
	C453.753021,430.623901 453.736694,414.452942 454.052307,398.295441 
	C454.257965,387.767456 461.896820,380.926208 472.536530,380.914978 
	C487.867340,380.898804 503.198120,380.900635 518.528931,380.914246 
	C529.879822,380.924347 536.802917,387.571930 537.345520,399.015289 
	C537.463745,401.509521 537.373169,404.013611 537.379028,407.010925 
z"/>
<path fill="#D40101" opacity="1.000000" stroke="none" 
	d="
M377.999756,127.000458 
	C392.202393,114.150200 408.818726,111.783524 424.779572,120.121521 
	C439.753143,127.943756 448.330872,145.144836 445.907501,162.489838 
	C443.576111,179.176605 430.923981,192.738434 414.228088,196.447037 
	C398.297516,199.985641 381.315643,192.792648 372.301056,178.688110 
	C362.973969,164.094620 363.710785,144.992752 374.157196,131.407959 
	C375.271332,129.959122 376.547089,128.634598 377.999756,127.000458 
z"/>
<path fill="#D90E08" opacity="1.000000" stroke="none" 
	d="
M537.223145,635.246033 
	C538.403503,639.779297 541.205200,641.386230 545.209656,640.655945 
	C549.909119,639.798889 550.414124,636.015503 550.423584,632.212158 
	C550.471741,612.885925 550.447388,593.559509 550.448425,574.233154 
	C550.448486,572.271423 550.448425,570.309692 550.448425,568.168579 
	C554.907227,568.168579 558.861633,568.168579 563.196350,568.168579 
	C563.196350,579.584717 563.208740,590.889221 563.192688,602.193726 
	C563.177612,612.855469 563.391724,623.525879 563.033630,634.176636 
	C562.609314,646.797729 555.452332,653.330750 542.925720,653.196533 
	C531.536682,653.074524 524.316895,647.119263 523.978882,635.734070 
	C523.341431,614.266479 523.573486,592.772949 523.460815,571.290100 
	C523.455750,570.321106 523.615417,569.351196 523.714539,568.193115 
	C528.043823,568.193115 532.166138,568.193115 537.146362,568.193115 
	C537.146362,590.331421 537.146362,612.570068 537.223145,635.246033 
z"/>
<path fill="#D90B05" opacity="1.000000" stroke="none" 
	d="
M505.024109,569.801514 
	C509.418304,597.316589 513.760620,624.396118 518.149414,651.765503 
	C513.540405,651.765503 509.270325,651.765503 504.610626,651.765503 
	C503.815918,646.933655 503.018280,642.084106 502.224152,637.255859 
	C496.764862,637.255859 491.658630,637.255859 486.386322,637.255859 
	C485.588135,642.190125 484.823853,646.914673 484.040192,651.759155 
	C479.922119,651.759155 476.006195,651.759155 471.704926,651.759155 
	C476.188934,623.730835 480.624359,596.006348 485.105286,567.997314 
	C491.089752,567.997314 496.905365,567.947510 502.717926,568.057922 
	C503.477356,568.072388 504.221130,568.909790 505.024109,569.801514 
M493.251648,589.943909 
	C491.558777,601.548340 489.865875,613.152710 488.149048,624.921387 
	C492.382904,624.921387 496.139221,624.921387 500.427338,624.921387 
	C498.590790,612.791870 496.808380,600.992798 494.953674,589.205078 
	C494.936951,589.098755 493.951660,589.144836 493.251648,589.943909 
z"/>
<path fill="#D90D07" opacity="1.000000" stroke="none" 
	d="
M423.820465,620.549194 
	C420.152008,620.032349 419.435089,621.563721 419.489563,624.514893 
	C419.654999,633.471008 419.549469,642.432129 419.549469,651.700989 
	C415.006226,651.700989 410.807220,651.700989 406.374817,651.700989 
	C406.374817,623.851501 406.374817,596.164062 406.374817,568.138000 
	C414.521698,568.138000 422.492340,567.659485 430.378723,568.269775 
	C438.609833,568.906677 444.056000,574.497253 444.939301,582.831665 
	C445.619507,589.249512 445.778442,595.791992 445.414917,602.236450 
	C444.693909,615.018250 438.155243,620.466003 423.820465,620.549194 
M425.278381,608.176819 
	C429.987762,608.453979 431.952881,605.909424 431.996094,601.524048 
	C432.045288,596.530762 432.078979,591.535034 431.976074,586.543335 
	C431.889923,582.364990 429.777771,580.072998 425.427948,580.147339 
	C423.626556,580.178162 421.824219,580.152466 419.743774,580.152466 
	C419.743774,589.620850 419.743774,598.701843 419.743774,608.177429 
	C421.434967,608.177429 422.910736,608.177429 425.278381,608.176819 
z"/>
<path fill="#DA130E" opacity="1.000000" stroke="none" 
	d="
M585.516602,569.490051 
	C585.559021,597.082092 585.559021,624.213623 585.559021,651.684998 
	C581.055298,651.684998 576.849915,651.684998 572.384277,651.684998 
	C572.384277,623.883179 572.384277,596.164124 572.384277,567.541016 
	C576.938843,568.058899 581.206482,568.544189 585.516602,569.490051 
z"/>
<path fill="#DA130E" opacity="1.000000" stroke="none" 
	d="
M465.573364,633.998657 
	C465.573303,640.136414 465.573303,645.774597 465.573303,651.715759 
	C461.010651,651.715759 456.804535,651.715759 452.361908,651.715759 
	C452.361908,623.966614 452.361908,596.379883 452.361908,568.383240 
	C456.496338,568.383240 460.718018,568.383240 465.573456,568.383240 
	C465.573456,589.982910 465.573456,611.741028 465.573364,633.998657 
z"/>
<path fill="#0A0A0A" opacity="1.000000" stroke="none" 
	d="
M307.860779,493.352417 
	C307.860779,510.748199 307.860779,527.684448 307.860779,544.817810 
	C305.327087,544.817810 303.220154,544.817810 300.831482,544.817810 
	C296.504395,531.244202 292.167877,517.640991 287.831360,504.037750 
	C287.505768,504.111328 287.180206,504.184875 286.854614,504.258423 
	C286.854614,517.656250 286.854614,531.054077 286.854614,544.732544 
	C284.825958,544.732544 283.108185,544.732544 281.183472,544.732544 
	C281.183472,526.255920 281.183472,507.828033 281.183472,489.392273 
	C288.792664,487.898682 288.804596,487.894806 291.122284,495.049164 
	C294.085358,504.195801 297.020172,513.351562 299.984955,522.497681 
	C300.417511,523.832031 300.948761,525.134521 301.953613,526.305237 
	C301.953613,514.011658 301.953613,501.718109 301.953613,489.115906 
	C303.829681,489.115906 305.559875,489.115906 307.860748,489.115906 
	C307.860748,490.380951 307.860748,491.636932 307.860779,493.352417 
z"/>
<path fill="#070707" opacity="1.000000" stroke="none" 
	d="
M658.843201,513.614929 
	C657.629578,515.410828 656.583679,516.864441 655.558411,518.289429 
	C664.526917,524.872620 657.674561,535.739075 661.524170,544.649475 
	C658.991211,544.649475 656.954956,544.649475 653.985718,544.649475 
	C653.985718,540.387390 654.028076,536.117065 653.976990,531.847839 
	C653.866211,522.585999 651.381958,520.452942 641.678345,521.621277 
	C641.678345,529.162415 641.678345,536.773010 641.678345,544.780701 
	C639.370117,544.886475 637.460815,544.973999 635.260620,545.074890 
	C635.260620,526.304993 635.260620,507.720459 635.260620,489.023163 
	C640.433105,489.023163 645.596130,488.759308 650.718933,489.099915 
	C655.507324,489.418335 659.278076,492.173157 659.689270,496.993195 
	C660.147095,502.361328 659.293640,507.841309 658.843201,513.614929 
M643.679871,515.177795 
	C647.247314,515.086426 652.110840,516.084473 652.931274,511.626038 
	C653.806885,506.868164 653.582275,501.363190 651.884277,496.933136 
	C651.162231,495.049103 645.472046,495.069275 641.473206,494.084595 
	C641.473206,500.314667 641.357422,505.093964 641.533203,509.862488 
	C641.598572,511.635803 642.346802,513.383972 643.679871,515.177795 
z"/>
<path fill="#101010" opacity="1.000000" stroke="none" 
	d="
M500.568420,504.225769 
	C500.567749,513.839233 500.759644,522.986755 500.515533,532.122742 
	C500.237915,542.514893 493.219604,547.765503 483.572906,545.251953 
	C478.448120,543.916626 475.215393,540.490662 475.056793,535.470581 
	C474.669250,523.202026 474.586487,510.900269 475.054962,498.637634 
	C475.304047,492.117859 480.623444,488.192505 487.384857,488.126526 
	C494.236389,488.059662 498.958344,491.793060 500.102539,498.308441 
	C500.416443,500.096039 500.421570,501.937836 500.568420,504.225769 
M481.030823,511.529205 
	C481.037323,518.671265 480.900513,525.817444 481.107025,532.953674 
	C481.220734,536.883301 483.310577,539.718933 487.535828,539.713013 
	C491.733765,539.707153 493.876038,536.989807 493.921661,532.974976 
	C494.042450,522.346313 494.060272,511.713989 493.915070,501.085876 
	C493.861023,497.129211 491.770386,494.280426 487.542236,494.298431 
	C483.357849,494.316193 481.333069,497.100189 481.100220,501.077332 
	C480.916046,504.222809 481.042389,507.386536 481.030823,511.529205 
z"/>
<path fill="#0D0D0D" opacity="1.000000" stroke="none" 
	d="
M682.542480,488.797485 
	C683.953918,489.554779 685.671265,490.169586 685.854614,491.089996 
	C689.389709,508.834595 692.745056,526.614990 696.201233,544.721985 
	C694.056763,544.721985 692.134644,544.721985 689.749390,544.721985 
	C689.043457,541.429138 688.291260,537.920654 687.484863,534.159607 
	C682.986267,534.159607 678.557739,534.159607 673.700562,534.159607 
	C673.004639,537.572937 672.287903,541.088135 671.532166,544.794617 
	C669.655884,544.794617 667.884033,544.794617 665.484802,544.794617 
	C669.032715,526.193481 672.559204,507.704620 676.165527,488.797333 
	C678.241150,488.797333 680.187744,488.797333 682.542480,488.797485 
M683.219971,511.267334 
	C682.408203,507.037872 681.596436,502.808411 680.784729,498.578949 
	C680.577881,498.575836 680.371094,498.572723 680.164307,498.569611 
	C678.325806,508.272583 676.487366,517.975525 674.598816,527.943115 
	C678.818359,527.943115 682.423950,527.943115 686.517944,527.943115 
	C685.438049,522.472595 684.415039,517.290161 683.219971,511.267334 
z"/>
<path fill="#030303" opacity="1.000000" stroke="none" 
	d="
M580.066650,545.005554 
	C577.932617,545.005554 576.283447,545.005554 574.314697,545.005554 
	C574.314697,526.343445 574.314697,507.834351 574.314697,489.032806 
	C579.571167,489.032806 584.848389,488.729767 590.074890,489.114685 
	C595.746704,489.532410 599.711060,493.641296 599.895630,499.823669 
	C600.237671,511.281769 600.274292,522.766968 599.886230,534.222168 
	C599.651550,541.153076 595.046997,544.880493 588.033386,544.998779 
	C585.540100,545.040771 583.045471,545.005554 580.066650,545.005554 
M593.861694,509.553528 
	C593.860901,507.227478 593.952942,504.896942 593.841064,502.576263 
	C593.558594,496.718506 591.680847,494.918884 585.888184,494.811981 
	C584.247253,494.781708 582.605225,494.807373 580.710876,494.807373 
	C580.710876,509.712830 580.710876,524.259583 580.710876,538.779480 
	C592.017151,540.188721 593.861145,538.574341 593.861694,527.484558 
	C593.861938,521.835571 593.861755,516.186584 593.861694,509.553528 
z"/>
<path fill="#0D0D0D" opacity="1.000000" stroke="none" 
	d="
M329.971375,488.836914 
	C336.916870,491.784851 338.976929,495.668457 338.120605,503.807739 
	C336.392731,503.807739 334.640991,503.807739 332.668091,503.807739 
	C332.422913,502.066895 332.725586,500.021698 331.846710,498.913666 
	C330.358337,497.037262 328.141846,494.579285 326.197540,494.549103 
	C324.246552,494.518799 321.260040,496.761780 320.486298,498.707855 
	C318.863037,502.790497 320.078735,506.943298 323.362335,510.093689 
	C326.596954,513.197021 330.063812,516.057068 333.331573,519.127380 
	C337.181152,522.744324 339.003937,527.315918 338.711151,532.549805 
	C338.227631,541.192688 333.418365,546.008301 325.727661,545.861206 
	C317.723694,545.708191 313.216003,540.651978 313.137939,531.716370 
	C313.129395,530.738037 313.216553,529.758911 313.277496,528.364624 
	C315.165924,528.272156 316.907043,528.186890 318.764282,528.095947 
	C319.139709,530.619202 318.881348,533.233215 319.970154,535.031677 
	C321.166748,537.008179 323.696716,539.570251 325.476166,539.446167 
	C327.665405,539.293396 331.296661,536.750732 331.428253,535.022156 
	C331.692230,531.552917 330.720856,527.505188 328.919250,524.499512 
	C327.123566,521.503845 323.749207,519.417969 320.956451,517.064392 
	C315.975525,512.866638 313.010101,507.808319 313.440063,501.065460 
	C314.060944,491.328918 319.866058,486.867401 329.971375,488.836914 
z"/>
<path fill="#030303" opacity="1.000000" stroke="none" 
	d="
M414.828491,491.105682 
	C416.608917,489.776489 418.386414,488.936859 421.174988,487.619598 
	C421.174988,495.926453 421.174957,502.859222 421.174957,509.791962 
	C421.174957,516.625061 421.151062,523.458313 421.182037,530.291199 
	C421.210785,536.637329 423.324951,539.760071 427.545197,539.816711 
	C431.917297,539.875366 433.983521,536.925903 433.990082,530.515747 
	C434.004211,516.724670 433.994415,502.933563 433.994415,489.001984 
	C436.196289,489.001984 437.950348,489.001984 439.856689,489.001984 
	C439.856689,504.621857 440.168427,520.076660 439.710510,535.508606 
	C439.514343,542.120056 434.150848,545.897034 427.250244,545.842712 
	C420.316986,545.788147 415.406891,541.693604 415.125702,534.580811 
	C414.678375,523.265869 414.887726,511.924896 414.827454,500.594879 
	C414.811493,497.595062 414.825409,494.595093 414.828491,491.105682 
z"/>
<path fill="#0D0D0D" opacity="1.000000" stroke="none" 
	d="
M551.567322,497.006165 
	C551.559143,502.801147 551.559143,508.096588 551.559143,513.787598 
	C556.375061,513.787598 560.635986,513.787598 565.024658,513.787598 
	C565.024658,515.812195 565.024658,517.425903 565.024658,519.509399 
	C560.627319,519.509399 556.381531,519.509399 551.855774,519.509399 
	C551.855774,526.201477 551.855774,532.427063 551.855774,539.040649 
	C557.187866,539.040649 562.454956,539.040649 567.957520,539.040649 
	C567.957520,541.188965 567.957520,542.955200 567.957520,544.873840 
	C560.361816,544.873840 552.925354,544.873840 545.231934,544.873840 
	C545.231934,526.314087 545.231934,507.888031 545.231934,489.129150 
	C552.686279,489.129150 560.221680,489.129150 567.982117,489.129150 
	C567.982117,490.885132 567.982117,492.641571 567.982117,494.869629 
	C563.559387,494.869629 559.280151,494.755066 555.014404,494.944641 
	C553.847229,494.996552 552.720703,495.960938 551.567322,497.006165 
z"/>
<path fill="#0D0D0D" opacity="1.000000" stroke="none" 
	d="
M605.975037,524.999756 
	C605.975037,512.699341 605.975037,500.898834 605.975037,488.949524 
	C613.791565,488.949524 621.247803,488.949524 628.953247,488.949524 
	C628.953247,490.830841 628.953247,492.582031 628.953247,494.760986 
	C623.636353,494.760986 618.391968,494.760986 612.859314,494.760986 
	C612.859314,501.226166 612.859314,507.271179 612.859314,513.739380 
	C617.325500,513.739380 621.584900,513.739380 626.015991,513.739380 
	C626.015991,515.769470 626.015991,517.378784 626.015991,519.459229 
	C621.677185,519.459229 617.432800,519.459229 612.880188,519.459229 
	C612.880188,526.151062 612.880188,532.381348 612.880188,538.990356 
	C618.137207,538.990356 623.409363,538.990356 628.939575,538.990356 
	C628.939575,541.127808 628.939575,542.893921 628.939575,544.843689 
	C621.403625,544.843689 613.971680,544.843689 605.975037,544.843689 
	C605.975037,538.364563 605.975037,531.932068 605.975037,524.999756 
z"/>
<path fill="#0D0D0D" opacity="1.000000" stroke="none" 
	d="
M531.871338,488.797729 
	C534.973938,488.797760 537.602478,488.797760 540.390259,488.797760 
	C540.390259,490.892975 540.390259,492.527893 540.390259,494.681274 
	C535.251160,494.681274 530.190735,494.681274 524.847290,494.681274 
	C524.847290,501.602783 524.847290,508.016602 524.847290,514.852478 
	C528.799133,514.852478 532.898560,514.852478 537.272095,514.852478 
	C537.272095,517.006348 537.272095,518.745178 537.272095,520.945557 
	C533.141052,520.945557 529.054199,520.945557 524.559082,520.945557 
	C524.559082,529.137146 524.559082,536.880981 524.559082,544.820557 
	C522.219666,544.820557 520.304504,544.820557 518.181396,544.820557 
	C518.181396,526.271912 518.181396,507.842255 518.181396,488.797699 
	C522.567444,488.797699 526.982361,488.797699 531.871338,488.797729 
z"/>
<path fill="#151515" opacity="1.000000" stroke="none" 
	d="
M352.109467,514.000366 
	C352.109467,507.518524 352.109467,501.536621 352.109467,495.068451 
	C348.715881,495.068451 345.486298,495.068451 342.024292,495.068451 
	C342.024292,492.807312 342.024292,491.030945 342.024292,489.014008 
	C350.808075,489.014008 359.584351,489.014008 368.701660,489.014008 
	C368.701660,490.783813 368.701660,492.630066 368.701660,494.816620 
	C365.492035,494.816620 362.378784,494.816620 358.686768,494.816620 
	C358.686768,511.669739 358.686768,528.212463 358.686768,544.892212 
	C356.296783,544.892212 354.488403,544.892212 352.109467,544.892212 
	C352.109467,534.724792 352.109467,524.612549 352.109467,514.000366 
z"/>
<path fill="#151515" opacity="1.000000" stroke="none" 
	d="
M450.095917,494.890564 
	C447.841644,494.890533 446.049072,494.890533 444.017944,494.890533 
	C444.017944,492.791779 444.017944,491.020233 444.017944,489.011169 
	C452.937134,489.011169 461.831451,489.011169 470.850342,489.011169 
	C470.850342,490.905670 470.850342,492.678680 470.850342,494.917053 
	C467.426849,494.917053 464.184387,494.917053 460.583191,494.917053 
	C460.583191,511.769165 460.583191,528.157471 460.583191,544.790649 
	C458.321930,544.790649 456.429077,544.790649 454.109436,544.790649 
	C454.109436,529.372437 454.058868,514.122375 454.156677,498.873260 
	C454.173981,496.175415 453.995087,494.208160 450.095917,494.890564 
z"/>
<path fill="#151515" opacity="1.000000" stroke="none" 
	d="
M394.109467,522.000000 
	C394.109467,512.852234 394.109467,504.204437 394.109467,495.070618 
	C390.715790,495.070618 387.490295,495.070618 384.025055,495.070618 
	C384.025055,492.809418 384.025055,491.032806 384.025055,489.014832 
	C392.805725,489.014832 401.581879,489.014832 410.700317,489.014832 
	C410.700317,490.786163 410.700317,492.633881 410.700317,494.815002 
	C407.497772,494.815002 404.378815,494.815002 400.688538,494.815002 
	C400.688538,511.667725 400.688538,528.210205 400.688538,544.890991 
	C398.298676,544.890991 396.490967,544.890991 394.109467,544.890991 
	C394.109467,537.394897 394.109467,529.947449 394.109467,522.000000 
z"/>
<path fill="#101010" opacity="1.000000" stroke="none" 
	d="
M707.568420,509.000427 
	C707.568420,519.139465 707.568420,528.778625 707.568420,538.902893 
	C712.745544,538.902893 717.811890,538.902893 723.217651,538.902893 
	C723.217651,541.103271 723.217651,542.822632 723.217651,544.789551 
	C715.937256,544.789551 708.705872,544.789551 701.220581,544.789551 
	C701.220581,526.210938 701.220581,507.690491 701.220581,489.005585 
	C703.242798,489.005585 705.175903,489.005585 707.568420,489.005585 
	C707.568420,495.640869 707.568420,502.070679 707.568420,509.000427 
z"/>
<path fill="#121212" opacity="1.000000" stroke="none" 
	d="
M267.970398,490.574585 
	C269.924774,489.532623 271.874207,488.930206 274.306274,488.178650 
	C274.306274,507.654907 274.306274,526.153564 274.306274,544.843994 
	C272.212921,544.843994 270.296844,544.843994 267.965424,544.843994 
	C267.965424,526.811157 267.965424,508.912659 267.970398,490.574585 
z"/>
<path fill="#121212" opacity="1.000000" stroke="none" 
	d="
M379.577148,497.103607 
	C379.577118,513.226990 379.577118,528.866272 379.577118,544.768921 
	C377.303406,544.768921 375.388489,544.768921 373.217041,544.768921 
	C373.217041,526.387939 373.217041,507.943115 373.217041,489.140594 
	C375.113220,489.140594 377.138824,489.140594 379.577148,489.140594 
	C379.577148,491.710449 379.577148,494.165009 379.577148,497.103607 
z"/>
<path fill="#D90E08" opacity="1.000000" stroke="none" 
	d="
M588.005493,555.997192 
	C583.681702,560.779175 580.149597,566.479736 572.606384,563.402771 
	C576.102722,551.982666 579.349976,549.740723 593.348633,550.095581 
	C591.344055,552.280151 589.775452,553.989624 588.005493,555.997192 
z"/>
<path fill="#FDF3F2" opacity="1.000000" stroke="none" 
	d="
M493.335083,589.531860 
	C493.951660,589.144836 494.936951,589.098755 494.953674,589.205078 
	C496.808380,600.992798 498.590790,612.791870 500.427338,624.921387 
	C496.139221,624.921387 492.382904,624.921387 488.149048,624.921387 
	C489.865875,613.152710 491.558777,601.548340 493.335083,589.531860 
z"/>
<path fill="#FDF3F2" opacity="1.000000" stroke="none" 
	d="
M424.832458,608.177124 
	C422.910736,608.177429 421.434967,608.177429 419.743774,608.177429 
	C419.743774,598.701843 419.743774,589.620850 419.743774,580.152466 
	C421.824219,580.152466 423.626556,580.178162 425.427948,580.147339 
	C429.777771,580.072998 431.889923,582.364990 431.976074,586.543335 
	C432.078979,591.535034 432.045288,596.530762 431.996094,601.524048 
	C431.952881,605.909424 429.987762,608.453979 424.832458,608.177124 
z"/>
<path fill="#F1F1F1" opacity="1.000000" stroke="none" 
	d="
M643.231750,515.160645 
	C642.346802,513.383972 641.598572,511.635803 641.533203,509.862488 
	C641.357422,505.093964 641.473206,500.314667 641.473206,494.084595 
	C645.472046,495.069275 651.162231,495.049103 651.884277,496.933136 
	C653.582275,501.363190 653.806885,506.868164 652.931274,511.626038 
	C652.110840,516.084473 647.247314,515.086426 643.231750,515.160645 
z"/>
<path fill="#FFFFFF" opacity="1.000000" stroke="none" 
	d="
M481.030823,511.035675 
	C481.042389,507.386536 480.916046,504.222809 481.100220,501.077332 
	C481.333069,497.100189 483.357849,494.316193 487.542236,494.298431 
	C491.770386,494.280426 493.861023,497.129211 493.915070,501.085876 
	C494.060272,511.713989 494.042450,522.346313 493.921661,532.974976 
	C493.876038,536.989807 491.733765,539.707153 487.535828,539.713013 
	C483.310577,539.718933 481.220734,536.883301 481.107025,532.953674 
	C480.900513,525.817444 481.037323,518.671265 481.030823,511.035675 
z"/>
<path fill="#FDF3F2" opacity="1.000000" stroke="none" 
	d="
M683.306030,511.687531 
	C684.415039,517.290161 685.438049,522.472595 686.517944,527.943115 
	C682.423950,527.943115 678.818359,527.943115 674.598816,527.943115 
	C676.487366,517.975525 678.325806,508.272583 680.164307,498.569611 
	C680.371094,498.572723 680.577881,498.575836 680.784729,498.578949 
	C681.596436,502.808411 682.408203,507.037872 683.306030,511.687531 
z"/>
<path fill="#F1F1F1" opacity="1.000000" stroke="none" 
	d="
M593.861694,510.045563 
	C593.861755,516.186584 593.861938,521.835571 593.861694,527.484558 
	C593.861145,538.574341 592.017151,540.188721 580.710876,538.779480 
	C580.710876,524.259583 580.710876,509.712830 580.710876,494.807373 
	C582.605225,494.807373 584.247253,494.781708 585.888184,494.811981 
	C591.680847,494.918884 593.558594,496.718506 593.841064,502.576263 
	C593.952942,504.896942 593.860901,507.227478 593.861694,510.045563 
z"/>
</svg>